<?xml version="1.0" encoding="utf-8"?>
<!-- Generator: Adobe Illustrator 24.0.0, SVG Export Plug-In . SVG Version: 6.00 Build 0)  -->
<svg version="1.0" id="Layer_1" xmlns="http://www.w3.org/2000/svg" xmlns:xlink="http://www.w3.org/1999/xlink" x="0px" y="0px"
	 viewBox="0 0 157 69" style="enable-background:new 0 0 157 69;" xml:space="preserve">
<style type="text/css">
	.st0{fill:#FFFFFF;}
</style>
<path class="st0" d="M62.25,29.63"/>
<path class="st0" d="M60.65,30.61v8.27c0,1.78,2.03,3.22,4.53,3.22s4.53-1.44,4.53-3.22v-8.27c0,0,0-0.48-0.41-0.68
	c0,0-0.36-0.19-1.19-0.25c-0.08-0.01-0.15-0.07-0.15-0.15s0.07-0.15,0.15-0.15h5.13c0.08,0,0.15,0.07,0.15,0.15
	s-0.07,0.14-0.15,0.15c-0.83,0.06-1.19,0.25-1.19,0.25c-0.41,0.2-0.41,0.68-0.41,0.68v7.2c0,2.93-3.01,5.31-6.72,5.31
	c-3.71,0-6.72-2.38-6.72-5.31l0-7.2c0,0,0-0.48-0.41-0.68c0,0-0.36-0.19-1.19-0.25c-0.08-0.01-0.15-0.07-0.15-0.15
	s0.07-0.15,0.15-0.15h5.62c0.08,0,0.15,0.07,0.15,0.15s-0.07,0.14-0.15,0.15c-0.83,0.06-1.19,0.25-1.19,0.25
	C60.65,30.13,60.65,30.61,60.65,30.61"/>
<path class="st0" d="M79.7,41.66c0,0,0,0.46,0.41,0.65c0,0,0.36,0.19,1.19,0.25c0.08,0.01,0.15,0.07,0.15,0.15
	c0,0.08-0.07,0.15-0.15,0.15h-5.13c-0.08,0-0.15-0.07-0.15-0.15c0-0.08,0.07-0.14,0.15-0.15c0.83-0.06,1.19-0.25,1.19-0.25
	c0.41-0.2,0.41-0.65,0.41-0.65l0-11.74c0-0.28,0.23-0.51,0.51-0.51c0.12,0,0.23,0.04,0.32,0.11l11.91,10.1l0-9.04
	c0,0,0-0.46-0.41-0.65c0,0-0.36-0.19-1.19-0.25c-0.08-0.01-0.15-0.07-0.15-0.15s0.07-0.15,0.15-0.15h5.13
	c0.08,0,0.15,0.07,0.15,0.15s-0.07,0.14-0.15,0.15c-0.83,0.06-1.19,0.25-1.19,0.25c-0.41,0.2-0.41,0.65-0.41,0.65l0,11.77
	c0,0.17-0.09,0.29-0.09,0.29c-0.09,0.13-0.24,0.22-0.41,0.22c-0.11,0-0.21-0.04-0.29-0.09L79.7,32.84L79.7,41.66z"/>
<path class="st0" d="M101.67,41.66c0,0,0,0.46,0.41,0.65c0,0,0.36,0.19,1.19,0.25c0.08,0.01,0.15,0.07,0.15,0.15
	c0,0.08-0.07,0.15-0.15,0.15h-5.62c-0.08,0-0.15-0.07-0.15-0.15c0-0.08,0.07-0.14,0.15-0.15c0.83-0.06,1.19-0.25,1.19-0.25
	c0.41-0.2,0.41-0.65,0.41-0.65V30.59c0,0,0-0.46-0.41-0.65c0,0-0.36-0.19-1.19-0.25c-0.08-0.01-0.15-0.07-0.15-0.15
	s0.07-0.15,0.15-0.15h5.62c0.08,0,0.15,0.07,0.15,0.15s-0.07,0.14-0.15,0.15c-0.83,0.06-1.19,0.25-1.19,0.25
	c-0.41,0.2-0.41,0.65-0.41,0.65V41.66z"/>
<path class="st0" d="M122.66,30.56c0.48-0.94,2.05-0.88,2.05-0.88c0.08-0.01,0.15-0.07,0.15-0.15s-0.07-0.15-0.15-0.15h-4.81
	c-0.08,0-0.15,0.07-0.15,0.15s0.07,0.14,0.15,0.15c0,0,1.69-0.01,1.31,0.73l-4.51,8.86l-4.53-8.86c-0.31-0.81,0.93-0.73,0.93-0.73
	c0.08-0.01,0.15-0.07,0.15-0.15s-0.07-0.15-0.15-0.15h-5.88c-0.08,0-0.15,0.07-0.15,0.15s0.07,0.14,0.15,0.15
	c0,0,1.57-0.06,2.05,0.88l6.26,12.29l0,0c0.09,0.16,0.25,0.26,0.44,0.26c0.19,0,0.36-0.11,0.44-0.26l0,0L122.66,30.56z"/>
<path class="st0" d="M130.31,30.59v11.07c0,0,0,0.46-0.41,0.65c0,0-0.36,0.19-1.19,0.25c-0.08,0.01-0.15,0.07-0.15,0.15
	c0,0.08,0.07,0.15,0.15,0.15h9.18c0.14,0,0.26-0.1,0.28-0.24c0,0,0.31-1.77,0.31-1.77c0-0.01,0-0.02,0-0.02
	c0-0.08-0.07-0.15-0.15-0.15c-0.07,0-0.13,0.04-0.14,0.11c-0.32,1.13-1.56,1.17-1.56,1.17h-3.95v-5.82l2.7,0c0,0,1.32,0,1.32,1.11
	c0,0.16,0.13,0.3,0.3,0.3c0.14,0,0.26-0.1,0.29-0.23l0.5-2.18c0-0.01,0-0.02,0-0.02c0-0.08-0.07-0.15-0.15-0.15
	c-0.03,0-0.06,0.01-0.08,0.03c0,0,0,0-0.01,0c-0.23,0.18-0.58,0.17-0.58,0.17l-4.31,0v-4.89h2.72c0,0,1.71,0,1.71,1.19
	c0,0.16,0.13,0.3,0.3,0.3c0.14,0,0.26-0.1,0.29-0.23l0.5-2.18c0-0.01,0-0.02,0-0.02c0-0.08-0.07-0.15-0.15-0.15
	c-0.03,0-0.06,0.01-0.08,0.03c0,0,0,0-0.01,0c-0.23,0.18-0.58,0.17-0.58,0.17h-8.64c-0.08,0-0.15,0.07-0.15,0.15
	s0.07,0.14,0.15,0.15c0.83,0.06,1.19,0.25,1.19,0.25C130.31,30.13,130.31,30.59,130.31,30.59"/>
<path class="st0" d="M25.49,31.47l9.32,12.15c0,0,0.35,0.43,0.36,0.73h6.92c0.01-0.3,0.36-0.73,0.36-0.73l9.63-12.56
	c0.26-0.34-0.13-0.65-0.13-0.65c-1.43-1.16-9.11-2.28-9.11-2.28v0.4c3.98,0.87,3.07,1.97,3.07,1.97l-7.27,9.5l-7.77-10.19
	c-0.07-0.13-0.11-0.27-0.11-0.42c0-0.47,0.38-0.86,0.86-0.86l0.26,0v-0.41H0.66v0.47l24.31,2.62
	C25.34,31.26,25.49,31.47,25.49,31.47"/>
<path class="st0" d="M142.7,29.31c0.01-0.07,0.07-0.13,0.15-0.13c0.02,0,0.05,0.01,0.06,0.01c0.43,0.18,1.14,0.19,1.14,0.19l11.4,0
	c0,0,0.35,0.01,0.58-0.17c0,0,0.01,0,0.01,0c0.02-0.02,0.05-0.03,0.08-0.03c0.08,0,0.15,0.07,0.15,0.15c0,0,0,0.01,0,0.02l-0.5,2.18
	c-0.03,0.13-0.15,0.23-0.29,0.23c-0.16,0-0.3-0.13-0.3-0.3c0.21-1.18-1.71-1.19-1.71-1.19l-3.07,0h0v11.38c0,0,0,0.46,0.41,0.65
	c0,0,0.36,0.19,1.19,0.25c0.08,0.01,0.15,0.07,0.15,0.15c0,0.08-0.07,0.15-0.15,0.15h-5.62c-0.08,0-0.15-0.07-0.15-0.15
	c0-0.08,0.07-0.14,0.15-0.15c0.83-0.06,1.19-0.25,1.19-0.25c0.41-0.2,0.41-0.65,0.41-0.65V30.29h-3.31
	c-0.98-0.02-1.57,0.28-1.85,1.05c-0.03,0.13-0.15,0.22-0.28,0.22c-0.16,0-0.29-0.13-0.29-0.29c0-0.03,0-0.05,0.01-0.08l0.45-1.89"/>
</svg>
